<svg xmlns="http://www.w3.org/2000/svg" version="1.1" xmlns:xlink="http://www.w3.org/1999/xlink" width="32" height="32" x="0" y="0" viewBox="0 0 300 300" style="enable-background:new 0 0 512 512" xml:space="preserve"><g><circle cx="248" cy="195.671" r="6" fill="#000000" opacity="1" data-original="#000000"></circle><path d="m35.93 89.174 18.285-10.059a16.081 16.081 0 0 1 15.57 0l8.57 4.715c7.297 4.012 15.992 4.012 23.289 0l8.57-4.715a16.081 16.081 0 0 1 15.57 0l8.57 4.715c7.297 4.012 15.992 4.012 23.289 0l8.57-4.715a16.081 16.081 0 0 1 15.57 0l8.57 4.715c7.297 4.012 15.992 4.012 23.289 0l8.57-4.715a16.081 16.081 0 0 1 15.57 0l18.285 10.059a3.998 3.998 0 0 0 5.434-1.576 4 4 0 0 0-1.574-5.432l-18.285-10.059c-7.297-4.012-15.992-4.012-23.289 0l-8.57 4.715a16.081 16.081 0 0 1-15.57 0l-8.57-4.715c-7.297-4.012-15.992-4.012-23.289 0l-8.57 4.715a16.081 16.081 0 0 1-15.57 0l-8.57-4.715c-7.297-4.012-15.992-4.012-23.289 0l-8.57 4.715a16.081 16.081 0 0 1-15.57 0l-8.57-4.715c-7.297-4.012-15.992-4.012-23.289 0l-18.285 10.06a3.997 3.997 0 0 0-1.574 5.432 3.995 3.995 0 0 0 5.433 1.575zM198 61.671c6.617 0 12-5.383 12-12s-5.383-12-12-12-12 5.383-12 12 5.383 12 12 12zm0-16c2.207 0 4 1.795 4 4s-1.793 4-4 4-4-1.795-4-4 1.793-4 4-4zM122 197.671c0 6.617 5.383 12 12 12s12-5.383 12-12-5.383-12-12-12-12 5.382-12 12zm16 0c0 2.205-1.793 4-4 4s-4-1.795-4-4 1.793-4 4-4 4 1.794 4 4zM222 117.671c0-6.617-5.383-12-12-12s-12 5.383-12 12 5.383 12 12 12 12-5.383 12-12zm-16 0c0-2.205 1.793-4 4-4s4 1.795 4 4-1.793 4-4 4-4-1.795-4-4z" fill="#000000" opacity="1" data-original="#000000"></path><circle cx="118" cy="49.671" r="4.292" fill="#000000" opacity="1" data-original="#000000"></circle><circle cx="206" cy="201.671" r="4.292" fill="#000000" opacity="1" data-original="#000000"></circle><path d="m257.344 137.725-47.18 7.863-34.153-8.538c1.168-.698 1.989-1.92 1.989-3.38v-14.227c0-7.594-6.18-13.773-13.773-13.773H99.774c-7.594 0-13.773 6.18-13.773 13.773v6.669c-5.087-5.201-12.169-8.442-20-8.442-15.438 0-28 12.561-28 28s12.562 28 28 28c7.831 0 14.913-3.241 20-8.442v12.442H62c-6.617 0-12 5.383-12 12s5.383 12 12 12h36c6.617 0 12-5.383 12-12v-20h156a4.002 4.002 0 0 0 3.246-1.662 3.994 3.994 0 0 0 .547-3.604l-8-24c-.621-1.866-2.535-3.007-4.449-2.679zM94 161.671v-24h32v24zm-40-8c0-6.617 5.383-12 12-12s12 5.383 12 12-5.383 12-12 12-12-5.383-12-12zm80-16h8v24h-8zm16 1.123 56 14v8.877h-56zm-56-19.35a5.78 5.78 0 0 1 5.773-5.773h64.453a5.78 5.78 0 0 1 5.773 5.773v10.227H94zm-28 6.227c11.027 0 20 8.973 20 20 0 1.367-.141 2.707-.404 4.007-1.856-9.121-9.936-16.007-19.596-16.007s-17.74 6.887-19.596 16.007c-.263-1.3-.404-2.64-.404-4.007 0-11.028 8.973-20 20-20zm36 64c0 2.205-1.793 4-4 4H62c-2.207 0-4-1.795-4-4s1.793-4 4-4h28c2.211 0 4-1.791 4-4v-12h8zm112-28v-8.612l41.285-6.88 5.164 15.492zM265.645 233.686l-54.844 4.876c-4.303-7.681-12.512-12.891-21.925-12.891H38c-2.211 0-4 1.791-4 4s1.789 4 4 4h150.875c9.441 0 17.125 7.684 17.125 17.127v6.873c0 2.209 1.789 4 4 4s4-1.791 4-4v-6.873c0-1.521-.158-3.004-.418-4.451l52.774-4.692a4 4 0 0 0 3.629-4.338c-.192-2.197-2.067-3.809-4.34-3.631zM71.646 241.776a4.276 4.276 0 1 0 0 8.552 4.276 4.276 0 0 0 0-8.552zM107.646 253.776a4.276 4.276 0 1 0 0 8.552 4.276 4.276 0 0 0 0-8.552z" fill="#000000" opacity="1" data-original="#000000"></path><path d="M127.646 241.776a4.276 4.276 0 1 0 0 8.552 4.276 4.276 0 0 0 0-8.552zM159.646 253.776a4.276 4.276 0 1 0 0 8.552 4.276 4.276 0 0 0 0-8.552zM183.646 245.776a4.276 4.276 0 1 0 0 8.552 4.276 4.276 0 0 0 0-8.552zM243.646 253.776a4.276 4.276 0 1 0 0 8.552 4.276 4.276 0 0 0 0-8.552z" fill="#000000" opacity="1" data-original="#000000"></path></g></svg>