<svg xmlns="http://www.w3.org/2000/svg" version="1.1" xmlns:xlink="http://www.w3.org/1999/xlink" width="32" height="32" x="0" y="0" viewBox="0 0 64 64" style="enable-background:new 0 0 512 512" xml:space="preserve" class=""><g><path d="M54 39.148V35c0-1.858-1.279-3.411-3-3.858V29a1 1 0 0 0-1-1h-1v-1a1 1 0 1 0 0-2 1 1 0 1 0-2 0 1 1 0 1 0 0 2v1h-1a1 1 0 0 0-1 1v2.142a4 4 0 0 0-2.915 3.042.997.997 0 0 1-.401-.57l-.865-3.461C42.685 27.953 44 25.145 44 22v-1.778c.343-.232.563-.395.6-.422a.998.998 0 0 0 .4-.8v-5a.997.997 0 0 0-.293-.707 12.086 12.086 0 0 0-.707-.635V12c0-6.617-5.383-12-12-12S20 5.383 20 12v.658c-.414.347-.671.599-.707.635A1.002 1.002 0 0 0 19 14v5a1 1 0 0 0 .4.8c.037.028.257.19.6.422V22c0 1.054.147 2.053.397 3H17a1 1 0 1 0-2 0 1 1 0 1 0 0 2v1h-1a1 1 0 0 0-1 1v2.142c-1.721.447-3 2-3 3.858v4.148a10.99 10.99 0 0 0-3 7.535V63a1 1 0 1 0 2 0v-8.794c1.891.4 5.676 1.395 8 3.268V63a1 1 0 1 0 2 0v-6.205l2.046 6.505a1 1 0 0 0 1.908-.6l-7.728-24.571c.151-.049.3-.101.455-.142l1.324-.353 8.041 25.665a1 1 0 1 0 1.908-.598L22.349 48h19.303l-4.606 14.701a1 1 0 1 0 1.908.597l8.041-25.665 1.324.353c.155.041.304.093.455.142L41.046 62.7a1 1 0 1 0 1.908.599L45 56.795V63a1 1 0 1 0 2 0v-5.526c2.32-1.869 6.108-2.866 8-3.267V63a1 1 0 1 0 2 0V46.683c0-2.875-1.126-5.544-3-7.535zM49 30v1h-2v-1zM36.282 19.195C35.46 17.697 34.53 16 32 16s-3.46 1.697-4.282 3.195c-.335.611-.679 1.239-1.136 1.782-1.906-.199-4.368-1.654-5.582-2.491v-4.05C21.774 13.75 23.946 12 26 12c.891 0 1.518.187 2.243.403.938.28 2.001.597 3.757.597s2.819-.317 3.757-.597C36.483 12.187 37.11 12 38 12c2.055 0 4.227 1.75 5 2.437v4.05c-1.212.836-3.671 2.292-5.581 2.491-.458-.544-.802-1.172-1.137-1.783zm-1.72 1.022C33.518 20.716 32.609 21 32 21s-1.518-.284-2.562-.783l.034-.061C30.271 18.7 30.712 18 32 18s1.729.7 2.528 2.157l.034.06zM32 2c5.252 0 9.563 4.073 9.961 9.226C40.816 10.565 39.426 10 38 10c-1.182 0-2.012.248-2.814.487-.847.252-1.722.513-3.186.513s-2.339-.261-3.186-.513C28.012 10.248 27.182 10 26 10c-1.425 0-2.816.565-3.961 1.226C22.437 6.073 26.748 2 32 2zM22 22v-.567c1.471.789 3.341 1.567 5 1.567.266 0 .52-.105.707-.293.254-.254.47-.52.671-.789C29.802 22.622 31.026 23 32 23s2.199-.378 3.622-1.082c.202.269.418.535.671.789A1 1 0 0 0 37 23c1.659 0 3.529-.778 5-1.567V22c0 5.735-5.716 11-10 11-2.434 0-6.454-2.357-8.578-6h.871c.188 0 .366.074.5.207a2.693 2.693 0 0 0 1.914.793h1.477A2.996 2.996 0 0 0 31 30h2a2.996 2.996 0 0 0 2.816-2H37a1 1 0 1 0 0-2h-1.184A2.996 2.996 0 0 0 33 24h-2a2.996 2.996 0 0 0-2.816 2h-1.477a.707.707 0 0 1-.5-.207A2.69 2.69 0 0 0 24.293 25h-1.782A9.402 9.402 0 0 1 22 22zm8 5c0-.551.448-1 1-1h2a1.001 1.001 0 0 1 0 2h-2c-.552 0-1-.449-1-1zm-13 0h4.129a13.548 13.548 0 0 0 2.053 3.152l-.865 3.461a1 1 0 0 1-.401.571 4.003 4.003 0 0 0-2.915-3.042V29a1 1 0 0 0-1-1h-1v-1zm0 3v1h-2v-1zm0 20.435v4.603c-2.796-1.707-6.383-2.558-8-2.875v-5.48a9.01 9.01 0 0 1 4.391-7.722zm-1.834-14.381c-.507.135-.994.312-1.466.513l-.013.001c-.01.003-.016.011-.026.014-.583.251-1.139.547-1.662.888V35c0-1.103.897-2 2-2h4c1.024 0 1.862.777 1.977 1.771zM21.095 44H27v2h-5.278zM30 44v2h-1v-2zm5 0v2h-3v-2zm2 2v-2h5.905l-.627 2zm6.532-4H20.469l-1.529-4.882 3.18-.848a3.001 3.001 0 0 0 2.137-2.171l.576-2.306C27.239 33.845 30.042 35 32 35c2.171 0 4.877-1.19 7.173-3.187l.572 2.286a3 3 0 0 0 2.137 2.17l3.18.848zm.491-7.229A1.997 1.997 0 0 1 46 33h4c1.103 0 2 .897 2 2v2.471a10.878 10.878 0 0 0-1.662-.888c-.01-.003-.016-.011-.026-.014l-.013-.001a10.901 10.901 0 0 0-1.466-.513zM47 55.038v-4.603l3.609-11.474A9.008 9.008 0 0 1 55 46.683v5.48c-1.617.317-5.204 1.168-8 2.875z" fill="#000000" opacity="1" data-original="#000000"></path><path d="M24.707 14.293a.999.999 0 0 0-1.414 0l-1 1a.999.999 0 1 0 1.414 1.414l1-1a.999.999 0 0 0 0-1.414zM26.293 15.293l-2 2a.999.999 0 1 0 1.414 1.414l2-2a.999.999 0 1 0-1.414-1.414zM38.707 15.707a.999.999 0 1 0-1.414-1.414l-1 1a.999.999 0 1 0 1.414 1.414zM38.293 18.707a.999.999 0 0 0 1.414 0l2-2a.999.999 0 1 0-1.414-1.414l-2 2a1 1 0 0 0 0 1.414z" fill="#000000" opacity="1" data-original="#000000"></path></g></svg>